<svg width="165" height="39" viewBox="0 0 165 39" fill="none" xmlns="http://www.w3.org/2000/svg">
<path d="M16.0256 18.2492L15.0618 16.0278C10.9231 17.8591 7.81124 18.3688 0.768526 18.4191V12.0508H23.0684V18.0164C16.076 26.2726 13.0649 28.7708 7.04272 31.6278L7.96243 33.868C12.246 31.9802 15.4587 31.4704 23.7802 31.4201V37.7947H0V31.8291C6.99232 23.6233 10.0223 21.125 16.0256 18.2492Z" fill="#181D2F"/>
<path d="M31.7807 0H32.8516C33.8657 0 34.8383 0.402436 35.5554 1.11878C36.2725 1.83512 36.6753 2.80668 36.6753 3.81974C36.6753 4.83338 36.2727 5.8056 35.5558 6.52294C34.8389 7.24028 33.8663 7.64411 32.8516 7.64578H31.7807C30.7649 7.64578 29.7907 7.24268 29.0725 6.52516C28.3542 5.80764 27.9507 4.83447 27.9507 3.81974C27.9524 2.80611 28.3566 1.83455 29.0747 1.11839C29.7928 0.402234 30.766 -1.37102e-06 31.7807 0ZM28.631 12.0319H36.1903V37.7947H28.631V12.0319Z" fill="#181D2F"/>
<path d="M41.7839 12.0507H49.2361C49.0786 13.8316 48.6061 15.1594 47.3966 17.3996L49.5888 18.5764C51.5794 13.7309 54.389 11.541 58.3198 11.541C62.553 11.541 65.3625 14.14 66.0743 18.4191H68.0649C68.6256 14.291 72.0965 11.541 76.588 11.541C82.2574 11.541 85.7221 15.8201 85.7221 22.7548V37.7947H78.1628V24.3847C78.1628 20.2062 76.273 17.966 72.9092 17.966C69.4382 17.966 67.3972 20.3573 67.3972 24.4916V37.7947H60.1025V24.3847C60.1025 20.2062 58.2694 17.966 54.8488 17.966C51.4282 17.966 49.3369 20.3573 49.3369 24.4916V37.7947H41.7776L41.7839 12.0507Z" fill="#181D2F"/>
<path d="M123.941 12.0507H131.387C131.258 13.9646 130.664 15.8182 129.654 17.45L131.746 18.5764C133.787 13.7813 136.785 11.541 140.987 11.541C146.751 11.541 150.121 15.8201 150.121 23.1135V37.7947H142.562V24.435C142.562 20.2062 140.672 17.966 137.05 17.966C133.428 17.966 131.487 20.2062 131.487 24.435V37.7947H123.928L123.941 12.0507Z" fill="#181D2F"/>
<path d="M155.393 2.1084H164.212L163.513 25.8009H156.111L155.393 2.1084ZM159.45 29.9982H160.168C161.203 29.9982 162.195 30.4084 162.927 31.1387C163.659 31.869 164.072 32.8598 164.073 33.8934C164.073 34.9282 163.662 35.9206 162.929 36.6523C162.197 37.3839 161.204 37.795 160.168 37.795H159.45C158.937 37.795 158.429 37.694 157.956 37.4979C157.482 37.3017 157.052 37.0143 156.69 36.6519C156.328 36.2895 156.041 35.8594 155.845 35.386C155.65 34.9127 155.549 34.4055 155.55 33.8934C155.55 32.8604 155.961 31.8696 156.692 31.1391C157.424 30.4086 158.415 29.9982 159.45 29.9982Z" fill="#181D2F"/>
<path d="M110.082 9.20654L118.567 10.6791L112.154 19.1618L105.823 18.0605L110.082 9.20654Z" fill="#FF6633"/>
<path d="M93.76 15.8831L99.5176 19.9986C99.9423 19.5634 100.423 19.1867 100.948 18.8785C101.477 18.5989 102.04 18.3875 102.623 18.2492L102.214 11.7676C99.0227 12.2116 96.0578 13.6649 93.7537 15.9145L93.76 15.8831Z" fill="#28A5FF"/>
<path d="M112.311 24.9446C112.311 29.1797 109.307 32.0366 104.966 32.0366C100.626 32.0366 97.5834 29.1797 97.5834 24.9446C97.586 24.6376 97.6049 24.3309 97.6401 24.0259H90.1501C90.1501 24.3279 90.1123 24.6552 90.1123 24.9446C90.1123 32.6974 96.3424 38.4553 104.966 38.4553C113.59 38.4553 119.82 32.7226 119.82 24.9446C119.82 24.6363 119.82 24.3153 119.782 24.0259H112.261C112.294 24.331 112.311 24.6377 112.311 24.9446Z" fill="#28A5FF"/>
</svg>
